<svg width="100" height="100" viewBox="0 0 100 100" fill="none" xmlns="http://www.w3.org/2000/svg">
  <rect width="100" height="100" rx="50" fill="#a6828d"/>
  <path d="M63.4359 29.9539C57.9211 24.4391 49.1349 24.4391 43.6201 29.9539C38.1053 35.4687 38.1053 44.2549 43.6201 49.7697L53.528 59.6776L63.4359 49.7697C68.9507 44.2549 68.9507 35.4687 63.4359 29.9539Z" fill="#f3ebed"/>
  <path d="M70.3798 40.0303C70.3798 40.0303 70.3798 40.0303 70.3798 40.0303L60.472 49.9382L70.3798 59.8461C75.8946 65.3609 84.6809 65.3609 90.1957 59.8461C95.7105 54.3313 95.7105 45.5451 90.1957 40.0303C84.6809 34.5155 75.8946 34.5155 70.3798 40.0303Z" fill="#c5a24a"/>
  <path d="M29.9539 40.0303C24.4391 45.5451 24.4391 54.3313 29.9539 59.8461C35.4687 65.3609 44.2549 65.3609 49.7697 59.8461L59.6776 49.9382L49.7697 40.0303C44.2549 34.5155 35.4687 34.5155 29.9539 40.0303Z" fill="#f4efda"/>
</svg>